<svg id="logo" xmlns="http://www.w3.org/2000/svg" viewBox="0 0 304 60"><defs><style>.cls-1{fill:#fff;}</style></defs><title>torounit</title><g id="text"><path d="M86.25 48.12V27.53h-4.51v-5.16h4.51v-9.75h5.89v9.75h4.51v5.16h-4.51v20.59h-5.89zM99.83 35.27a13.44 13.44 0 0 1 1.07-5.34 13.69 13.69 0 0 1 3.1-4.46 13.87 13.87 0 0 1 4.56-3 14.85 14.85 0 0 1 10.88 0 13.89 13.89 0 0 1 4.6 3 13.65 13.65 0 0 1 3.1 4.48 13.3 13.3 0 0 1 1.06 5.24 13.73 13.73 0 0 1-1 5.35 13.1 13.1 0 0 1-3.06 4.43 14.73 14.73 0 0 1-4.7 3.08 14.33 14.33 0 0 1-5.43 1 14.19 14.19 0 0 1-5.38-1 14.3 14.3 0 0 1-7.69-7.54 13.5 13.5 0 0 1-1.11-5.24zm22.17.06a8.59 8.59 0 0 0-2.31-6.07 7.65 7.65 0 0 0-11.29 0 8.56 8.56 0 0 0-2.4 6.07 8.56 8.56 0 0 0 2.32 6.07 7.63 7.63 0 0 0 11.27 0 8.56 8.56 0 0 0 2.41-6.07zM140.33 26.47a8.35 8.35 0 0 1 2.51-3.78 6.09 6.09 0 0 1 3.87-1.22 10.2 10.2 0 0 1 2.46.3 12 12 0 0 1 2.38.87l-2.12 5a5.45 5.45 0 0 0-1.64-.8 7 7 0 0 0-2-.26 4.42 4.42 0 0 0-4.21 2.35q-1.28 2.35-1.28 7.89v11.3h-5.89v-25.8h5.89v4.16zM153 35.27a13.44 13.44 0 0 1 1.07-5.34 13.69 13.69 0 0 1 3.08-4.47 13.87 13.87 0 0 1 4.56-3 14.85 14.85 0 0 1 10.88 0 13.89 13.89 0 0 1 4.6 3 13.65 13.65 0 0 1 3.1 4.48 13.3 13.3 0 0 1 1.06 5.24 13.73 13.73 0 0 1-1 5.35 13.1 13.1 0 0 1-3.06 4.43 14.73 14.73 0 0 1-4.7 3.08 14.33 14.33 0 0 1-5.43 1 14.19 14.19 0 0 1-5.38-1 14.3 14.3 0 0 1-7.69-7.54 13.5 13.5 0 0 1-1.09-5.23zm22.14.05a8.59 8.59 0 0 0-2.31-6.07 7.65 7.65 0 0 0-11.29 0 8.56 8.56 0 0 0-2.32 6.07 8.56 8.56 0 0 0 2.32 6.07 7.63 7.63 0 0 0 11.27 0 8.56 8.56 0 0 0 2.34-6.06zM217.92 22.37v14.51q0 3.75 1.55 5.38t5 1.63q3.48 0 5-1.63t1.55-5.38V22.37H237v12.74q0 7.39-3 10.73t-9.45 3.34q-6.6 0-9.56-3.31t-3-10.76V22.37h5.89zM244.92 48.12V22.37h5.54v4.21a11.1 11.1 0 0 1 4.16-3.88 12.65 12.65 0 0 1 5.81-1.22 11.92 11.92 0 0 1 4.9.91 7.12 7.12 0 0 1 3.16 2.7 7.4 7.4 0 0 1 1 2.47 27.65 27.65 0 0 1 .3 4.94v15.62h-5.95V34.89q0-5.08-1.24-6.75t-4.39-1.67a8.55 8.55 0 0 0-3.68.76 6.09 6.09 0 0 0-2.53 2.15 5.85 5.85 0 0 0-.91 2.38 29.39 29.39 0 0 0-.26 4.63v11.73h-5.9zM277.11 11.23a3.51 3.51 0 0 1 1.1-2.58 3.6 3.6 0 0 1 2.62-1.09 3.57 3.57 0 0 1 3.67 3.67 3.62 3.62 0 0 1-1.06 2.65 3.52 3.52 0 0 1-2.61 1.12 3.76 3.76 0 0 1-3.72-3.77zm.79 36.89V22.37h5.89v25.75h-5.89zM293.6 48.12V27.53h-4.51v-5.16h4.51v-9.75h5.89v9.75H304v5.16h-4.51v20.59h-5.89zM188.31 43.88h15.07v4.67h-15.07v-4.67z"/></g><g id="icon"><path d="M0 0h60v60H0z"/><path class="cls-1" d="M48 18v-6H12v6h15v30h6V18h15z"/></g></svg>