<svg xmlns="http://www.w3.org/2000/svg" width="564" height="60" viewBox="-2211 971 564 60"><path d="M-2022 971h60v60h-60zM-1707 971h60v60h-60zM-1770 971h60v60h-60zM-1833 971h60v60h-60zM-1896 971h60v60h-60zM-1959 971h60v60h-60z"/><path d="M-2022 971h60v60h-60zM-2085 971h60v60h-60zM-2148 971h60v60h-60zM-2211 971h60v60h-60z"/><path fill="#FFF" d="M-2163 989v-6h-36v6h15v30h6v-30M-2136 983h36v36h-36z"/><path fill="#040000" d="M-2129.6 989h23.3l.3.4v23.2l-.3.4h-23.3l-.4-.4v-23.2"/><path fill="#FFF" d="M-2073 1019h6v-18h18v18h6v-18h6v-18h-36"/><path fill="#040000" d="M-2066.6 989h23.2l.4.4v5.2l-.4.4h-23.2l-.4-.4v-5.2"/><path fill="#FFF" d="M-2010 983h36v36h-36z"/><path fill="#040000" d="M-2003.6 989h23.2l.4.4v23.2l-.4.4h-23.2l-.4-.4v-23.2"/><path fill="#FFF" d="M-1938 1013h18v6h-18zM-1884 983v36h36v-36h-6v30h-24v-30"/><g><path fill="#FFF" d="M-1821 983v36h6v-30h24v30h6v-36"/></g><g><path fill="#FFF" d="M-1743 983h6v36h-6z"/></g><g><path fill="#FFF" d="M-1680 1019h6v-30h15v-6h-36v6h15"/></g></svg>