<?xml version="1.0" encoding="utf-8"?>
<!-- Generator: Adobe Illustrator 18.1.0, SVG Export Plug-In . SVG Version: 6.00 Build 0)  -->
<!DOCTYPE svg PUBLIC "-//W3C//DTD SVG 1.1//EN" "http://www.w3.org/Graphics/SVG/1.1/DTD/svg11.dtd">
<svg version="1.1" id="logo" xmlns="http://www.w3.org/2000/svg" xmlns:xlink="http://www.w3.org/1999/xlink" x="0px" y="0px"
	 width="564px" height="60px" viewBox="-2211 971 564 60" enable-background="new -2211 971 564 60" xml:space="preserve">
<rect x="-2214" y="968" display="none" fill="#FFFFFF" width="570" height="66"/>
<rect x="-2022" y="971" width="60" height="60"/>
<rect x="-1707" y="971" width="60" height="60"/>
<rect x="-1770" y="971" width="60" height="60"/>
<rect x="-1833" y="971" width="60" height="60"/>
<rect x="-1896" y="971" width="60" height="60"/>
<rect x="-1959" y="971" width="60" height="60"/>
<rect x="-2022" y="971" width="60" height="60"/>
<rect x="-2085" y="971" width="60" height="60"/>
<rect x="-2148" y="971" width="60" height="60"/>
<rect x="-2211" y="971" width="60" height="60"/>
<g>
	<g>
		<polygon fill="#FFFFFF" points="-2163,989 -2163,983 -2199,983 -2199,989 -2184,989 -2184,1019 -2178,1019 -2178,989 		"/>
	</g>
	<g>
		<rect x="-2136" y="983" fill="#FFFFFF" width="36" height="36"/>
		<polygon fill="#040000" points="-2129.6,989 -2106.3,989 -2106,989.4 -2106,1012.6 -2106.3,1013 -2129.6,1013 -2130,1012.6 
			-2130,989.4 		"/>
	</g>
	<g>
		<polyline fill="#FFFFFF" points="-2073,1019 -2067,1019 -2067,1001 -2049,1001 -2049,1019 -2043,1019 -2043,1001 -2037,1001 
			-2037,983 -2073,983 -2073,983 		"/>
		<polygon fill="#040000" points="-2066.6,989 -2043.4,989 -2043,989.4 -2043,994.6 -2043.4,995 -2066.6,995 -2067,994.6 
			-2067,989.4 		"/>
	</g>
	<g>
		<rect x="-2010" y="983" fill="#FFFFFF" width="36" height="36"/>
		<polygon fill="#040000" points="-2003.6,989 -1980.4,989 -1980,989.4 -1980,1012.6 -1980.4,1013 -2003.6,1013 -2004,1012.6 
			-2004,989.4 		"/>
	</g>
	<g>
		<rect x="-1938" y="1013" fill="#FFFFFF" width="18" height="6"/>
	</g>
	<g>
		<polygon fill="#FFFFFF" points="-1884,983 -1884,1019 -1848,1019 -1848,983 -1854,983 -1854,1013 -1854,1013 -1878,1013 
			-1878,1013 -1878,983 		"/>
	</g>
	<g>
		<polygon fill="#FFFFFF" points="-1821,983 -1821,1019 -1815,1019 -1815,989 -1791,989 -1791,1019 -1785,1019 -1785,983 		"/>
	</g>
	<g>
		<rect x="-1743" y="983" fill="#FFFFFF" width="6" height="36"/>
	</g>
	<g>
		<polyline fill="#FFFFFF" points="-1680,1019 -1674,1019 -1674,989 -1674,989 -1659,989 -1659,983 -1695,983 -1695,989 -1680,989 
					"/>
	</g>
</g>
</svg>
