<svg id="logo" xmlns="http://www.w3.org/2000/svg" viewBox="0 0 304 60"><defs><style>.cls-1{fill:#fff;}</style></defs><title>torounit</title><g id="text"><path d="M86.25,48.12V27.53H81.74V22.37h4.51V12.62h5.89v9.75h4.51v5.16H92.14V48.12H86.25Z"/><path d="M99.83,35.27a13.44,13.44,0,0,1,1.07-5.34A13.69,13.69,0,0,1,104,25.47a13.87,13.87,0,0,1,4.56-3,14.85,14.85,0,0,1,10.88,0,13.89,13.89,0,0,1,4.6,3,13.65,13.65,0,0,1,3.1,4.48,13.3,13.3,0,0,1,1.06,5.24,13.73,13.73,0,0,1-1,5.35,13.1,13.1,0,0,1-3.06,4.43,14.73,14.73,0,0,1-4.7,3.08,14.33,14.33,0,0,1-5.43,1,14.19,14.19,0,0,1-5.38-1,14.3,14.3,0,0,1-7.69-7.54A13.5,13.5,0,0,1,99.83,35.27ZM122,35.33a8.59,8.59,0,0,0-2.31-6.07,7.65,7.65,0,0,0-11.29,0A8.56,8.56,0,0,0,106,35.33a8.56,8.56,0,0,0,2.32,6.07,7.63,7.63,0,0,0,11.27,0A8.56,8.56,0,0,0,122,35.33Z"/><path d="M140.33,26.47a8.35,8.35,0,0,1,2.51-3.78,6.09,6.09,0,0,1,3.87-1.22,10.2,10.2,0,0,1,2.46.3,12,12,0,0,1,2.38.87l-2.12,5a5.45,5.45,0,0,0-1.64-.8,7,7,0,0,0-2-.26,4.42,4.42,0,0,0-4.21,2.35q-1.28,2.35-1.28,7.89v11.3h-5.89V22.32h5.89v4.16Z"/><path d="M153,35.27a13.44,13.44,0,0,1,1.07-5.34,13.69,13.69,0,0,1,3.08-4.47,13.87,13.87,0,0,1,4.56-3,14.85,14.85,0,0,1,10.88,0,13.89,13.89,0,0,1,4.6,3,13.65,13.65,0,0,1,3.1,4.48,13.3,13.3,0,0,1,1.06,5.24,13.73,13.73,0,0,1-1,5.35,13.1,13.1,0,0,1-3.06,4.43,14.73,14.73,0,0,1-4.7,3.08,14.33,14.33,0,0,1-5.43,1,14.19,14.19,0,0,1-5.38-1,14.3,14.3,0,0,1-7.69-7.54A13.5,13.5,0,0,1,153,35.27Zm22.14,0.05a8.59,8.59,0,0,0-2.31-6.07,7.65,7.65,0,0,0-11.29,0,8.56,8.56,0,0,0-2.32,6.07,8.56,8.56,0,0,0,2.32,6.07,7.63,7.63,0,0,0,11.27,0A8.56,8.56,0,0,0,175.15,35.33Z"/><path d="M217.92,22.37V36.88q0,3.75,1.55,5.38t5,1.63q3.48,0,5-1.63t1.55-5.38V22.37H237V35.11q0,7.39-3,10.73t-9.45,3.34q-6.6,0-9.56-3.31t-3-10.76V22.37h5.89Z"/><path d="M244.92,48.12V22.37h5.54v4.21a11.1,11.1,0,0,1,4.16-3.88,12.65,12.65,0,0,1,5.81-1.22,11.92,11.92,0,0,1,4.9.91,7.12,7.12,0,0,1,3.16,2.7,7.4,7.4,0,0,1,1,2.47,27.65,27.65,0,0,1,.3,4.94V48.12h-5.95V34.89q0-5.08-1.24-6.75t-4.39-1.67a8.55,8.55,0,0,0-3.68.76A6.09,6.09,0,0,0,252,29.38a5.85,5.85,0,0,0-.91,2.38,29.39,29.39,0,0,0-.26,4.63V48.12h-5.9Z"/><path d="M277.11,11.23a3.51,3.51,0,0,1,1.1-2.58,3.6,3.6,0,0,1,2.62-1.09,3.57,3.57,0,0,1,3.67,3.67,3.62,3.62,0,0,1-1.06,2.65A3.52,3.52,0,0,1,280.83,15,3.76,3.76,0,0,1,277.11,11.23Zm0.79,36.89V22.37h5.89V48.12H277.9Z"/><path d="M293.6,48.12V27.53h-4.51V22.37h4.51V12.62h5.89v9.75H304v5.16h-4.51V48.12H293.6Z"/><path d="M188.31,43.88h15.07v4.67H188.31V43.88Z"/></g><g id="icon"><rect width="60" height="60"/><polygon class="cls-1" points="48 18 48 12 12 12 12 18 27 18 27 48 33 48 33 18 48 18"/></g></svg>